<svg aria-roledescription="er" role="graphics-document document" viewBox="-90.89683532714844 0 751.6734008789062 904.0625" height="904.0625" xmlns="http://www.w3.org/2000/svg" width="751.6734008789062" id="tmpMermaidElement764"><style>#tmpMermaidElement {background: white;}#tmpMermaidElement764{font-family:"trebuchet ms",verdana,arial,sans-serif;font-size:16px;fill:#333;}#tmpMermaidElement764 .error-icon{fill:#552222;}#tmpMermaidElement764 .error-text{fill:#552222;stroke:#552222;}#tmpMermaidElement764 .edge-thickness-normal{stroke-width:2px;}#tmpMermaidElement764 .edge-thickness-thick{stroke-width:3.5px;}#tmpMermaidElement764 .edge-pattern-solid{stroke-dasharray:0;}#tmpMermaidElement764 .edge-pattern-dashed{stroke-dasharray:3;}#tmpMermaidElement764 .edge-pattern-dotted{stroke-dasharray:2;}#tmpMermaidElement764 .marker{fill:#333333;stroke:#333333;}#tmpMermaidElement764 .marker.cross{stroke:#333333;}#tmpMermaidElement764 svg{font-family:"trebuchet ms",verdana,arial,sans-serif;font-size:16px;}#tmpMermaidElement764 .entityBox{fill:#ECECFF;stroke:#9370DB;}#tmpMermaidElement764 .attributeBoxOdd{fill:#ffffff;stroke:#9370DB;}#tmpMermaidElement764 .attributeBoxEven{fill:#f2f2f2;stroke:#9370DB;}#tmpMermaidElement764 .relationshipLabelBox{fill:hsl(80, 100%, 96.2745098039%);opacity:0.7;background-color:hsl(80, 100%, 96.2745098039%);}#tmpMermaidElement764 .relationshipLabelBox rect{opacity:0.5;}#tmpMermaidElement764 .relationshipLine{stroke:#333333;}#tmpMermaidElement764 .entityTitleText{text-anchor:middle;font-size:18px;fill:#333;}#tmpMermaidElement764 #MD_PARENT_START{fill:#f5f5f5!important;stroke:#333333!important;stroke-width:1;}#tmpMermaidElement764 #MD_PARENT_END{fill:#f5f5f5!important;stroke:#333333!important;stroke-width:1;}#tmpMermaidElement764 :root{--mermaid-font-family:"trebuchet ms",verdana,arial,sans-serif;}</style><g></g><defs><marker orient="auto" markerHeight="240" markerWidth="190" refY="7" refX="0" id="MD_PARENT_START"><path d="M 18,7 L9,13 L1,7 L9,1 Z"></path></marker></defs><defs><marker orient="auto" markerHeight="28" markerWidth="20" refY="7" refX="19" id="MD_PARENT_END"><path d="M 18,7 L9,13 L1,7 L9,1 Z"></path></marker></defs><defs><marker orient="auto" markerHeight="18" markerWidth="18" refY="9" refX="0" id="ONLY_ONE_START"><path d="M9,0 L9,18 M15,0 L15,18" fill="none" stroke="gray"></path></marker></defs><defs><marker orient="auto" markerHeight="18" markerWidth="18" refY="9" refX="18" id="ONLY_ONE_END"><path d="M3,0 L3,18 M9,0 L9,18" fill="none" stroke="gray"></path></marker></defs><defs><marker orient="auto" markerHeight="18" markerWidth="30" refY="9" refX="0" id="ZERO_OR_ONE_START"><circle r="6" cy="9" cx="21" fill="white" stroke="gray"></circle><path d="M9,0 L9,18" fill="none" stroke="gray"></path></marker></defs><defs><marker orient="auto" markerHeight="18" markerWidth="30" refY="9" refX="30" id="ZERO_OR_ONE_END"><circle r="6" cy="9" cx="9" fill="white" stroke="gray"></circle><path d="M21,0 L21,18" fill="none" stroke="gray"></path></marker></defs><defs><marker orient="auto" markerHeight="36" markerWidth="45" refY="18" refX="18" id="ONE_OR_MORE_START"><path d="M0,18 Q 18,0 36,18 Q 18,36 0,18 M42,9 L42,27" fill="none" stroke="gray"></path></marker></defs><defs><marker orient="auto" markerHeight="36" markerWidth="45" refY="18" refX="27" id="ONE_OR_MORE_END"><path d="M3,9 L3,27 M9,18 Q27,0 45,18 Q27,36 9,18" fill="none" stroke="gray"></path></marker></defs><defs><marker orient="auto" markerHeight="36" markerWidth="57" refY="18" refX="18" id="ZERO_OR_MORE_START"><circle r="6" cy="18" cx="48" fill="white" stroke="gray"></circle><path d="M0,18 Q18,0 36,18 Q18,36 0,18" fill="none" stroke="gray"></path></marker></defs><defs><marker orient="auto" markerHeight="36" markerWidth="57" refY="18" refX="39" id="ZERO_OR_MORE_END"><circle r="6" cy="18" cx="9" fill="white" stroke="gray"></circle><path d="M21,18 Q39,0 57,18 Q39,36 21,18" fill="none" stroke="gray"></path></marker></defs><path style="stroke: gray; fill: none;" marker-start="url(#ONLY_ONE_START)" marker-end="url(#ZERO_OR_MORE_END)" d="M200.839,148.203L216.564,159.672C232.289,171.141,263.738,194.078,297.392,218.124C331.046,242.17,366.905,267.323,384.834,279.9L402.763,292.477" class="er relationshipLine"></path><path style="stroke: gray; fill: none;" marker-start="url(#ONLY_ONE_START)" marker-end="url(#ZERO_OR_MORE_END)" d="M402.763,365.822L358.448,382.19C314.133,398.558,225.503,431.295,181.189,455.996C136.874,480.698,136.874,497.365,136.874,505.698L136.874,514.031" class="er relationshipLine"></path><path style="stroke: gray; fill: none;" marker-start="url(#ONLY_ONE_START)" marker-end="url(#ZERO_OR_MORE_END)" d="M128.092,167.016L128.347,175.349C128.602,183.682,129.111,200.349,129.365,219.016C129.62,237.682,129.62,258.349,129.62,268.682L129.62,279.016" class="er relationshipLine"></path><path style="stroke: gray; fill: none;" marker-start="url(#ONLY_ONE_START)" marker-end="url(#ZERO_OR_MORE_END)" d="M535.436,414.031L542.712,422.365C549.988,430.698,564.54,447.365,571.816,464.031C579.092,480.698,579.092,497.365,579.092,505.698L579.092,514.031" class="er relationshipLine"></path><path style="stroke: gray; fill: none;" marker-start="url(#ONLY_ONE_START)" marker-end="url(#ZERO_OR_MORE_END)" d="M579.092,637.047L579.092,645.38C579.092,653.714,579.092,670.38,579.092,689.047C579.092,707.714,579.092,728.38,579.092,738.714L579.092,749.047" class="er relationshipLine"></path><path style="stroke: gray; fill: none;" marker-start="url(#ONLY_ONE_START)" marker-end="url(#ZERO_OR_MORE_END)" d="M407.076,414.031L399.801,422.365C392.525,430.698,377.973,447.365,370.697,466.031C363.421,484.698,363.421,505.365,363.421,515.698L363.421,526.031" class="er relationshipLine"></path><path style="stroke: gray; fill: none;" marker-start="url(#ONLY_ONE_START)" marker-end="url(#ZERO_OR_MORE_END)" d="M446.17,131.016L458.684,145.349C471.198,159.682,496.227,188.349,505.368,211.016C514.509,233.682,507.762,250.349,504.388,258.682L501.015,267.016" class="er relationshipLine"></path><path style="stroke: gray; fill: none;" marker-start="url(#ONLY_ONE_START)" marker-end="url(#ZERO_OR_MORE_END)" d="M344.401,112.489L281.053,129.91C217.704,147.331,91.008,182.173,27.66,220.179C-35.689,258.185,-35.689,299.354,-35.689,340.523C-35.689,381.693,-35.689,422.862,-35.689,462.031C-35.689,501.201,-35.689,538.37,-35.689,575.539C-35.689,612.708,-35.689,649.878,-26.407,678.112C-17.126,706.347,1.437,725.647,10.719,735.297L20,744.947" class="er relationshipLine"></path><path style="stroke: gray; fill: none;" marker-start="url(#ONLY_ONE_START)" marker-end="url(#ZERO_OR_MORE_END)" d="M136.874,637.047L136.874,645.38C136.874,653.714,136.874,670.38,133.245,687.047C129.617,703.714,122.361,720.38,118.733,728.714L115.105,737.047" class="er relationshipLine"></path><g transform="translate(50.854759216308594,20 )" id="entity-CLIENT-4e758595-4f1b-56da-a7d5-19191cf4cb1e"><rect height="147.015625" width="149.98458862304688" y="0" x="0" class="er entityBox"></rect><text style="dominant-baseline: middle; text-anchor: middle; font-size: 12px;" transform="translate(74.99229431152344,13.5078125)" y="0" x="0" id="text-entity-CLIENT-4e758595-4f1b-56da-a7d5-19191cf4cb1e" class="er entityLabel">CLIENT</text><rect height="24" width="37.4693603515625" y="27.015625" x="0" class="er attributeBoxOdd"></rect><text style="dominant-baseline: middle; font-size: 10.2px;" transform="translate(5,39.015625)" y="0" x="0" id="text-entity-CLIENT-4e758595-4f1b-56da-a7d5-19191cf4cb1e-attr-1-type" class="er entityLabel">int</text><rect height="24" width="89.38681030273438" y="27.015625" x="37.4693603515625" class="er attributeBoxOdd"></rect><text style="dominant-baseline: middle; font-size: 10.2px;" transform="translate(42.4693603515625,39.015625)" y="0" x="0" id="text-entity-CLIENT-4e758595-4f1b-56da-a7d5-19191cf4cb1e-attr-1-name" class="er entityLabel">id</text><rect height="24" width="23.12841796875" y="27.015625" x="126.85617065429688" class="er attributeBoxOdd"></rect><text style="dominant-baseline: middle; font-size: 10.2px;" transform="translate(131.85617065429688,39.015625)" y="0" x="0" id="text-entity-CLIENT-4e758595-4f1b-56da-a7d5-19191cf4cb1e-attr-1-key" class="er entityLabel">PK</text><rect height="24" width="37.4693603515625" y="51.015625" x="0" class="er attributeBoxEven"></rect><text style="dominant-baseline: middle; font-size: 10.2px;" transform="translate(5,63.015625)" y="0" x="0" id="text-entity-CLIENT-4e758595-4f1b-56da-a7d5-19191cf4cb1e-attr-2-type" class="er entityLabel">string</text><rect height="24" width="89.38681030273438" y="51.015625" x="37.4693603515625" class="er attributeBoxEven"></rect><text style="dominant-baseline: middle; font-size: 10.2px;" transform="translate(42.4693603515625,63.015625)" y="0" x="0" id="text-entity-CLIENT-4e758595-4f1b-56da-a7d5-19191cf4cb1e-attr-2-name" class="er entityLabel">nume</text><rect height="24" width="23.12841796875" y="51.015625" x="126.85617065429688" class="er attributeBoxEven"></rect><text style="dominant-baseline: middle; font-size: 10.2px;" transform="translate(131.85617065429688,63.015625)" y="0" x="0" id="text-entity-CLIENT-4e758595-4f1b-56da-a7d5-19191cf4cb1e-attr-2-key" class="er entityLabel"></text><rect height="24" width="37.4693603515625" y="75.015625" x="0" class="er attributeBoxOdd"></rect><text style="dominant-baseline: middle; font-size: 10.2px;" transform="translate(5,87.015625)" y="0" x="0" id="text-entity-CLIENT-4e758595-4f1b-56da-a7d5-19191cf4cb1e-attr-3-type" class="er entityLabel">string</text><rect height="24" width="89.38681030273438" y="75.015625" x="37.4693603515625" class="er attributeBoxOdd"></rect><text style="dominant-baseline: middle; font-size: 10.2px;" transform="translate(42.4693603515625,87.015625)" y="0" x="0" id="text-entity-CLIENT-4e758595-4f1b-56da-a7d5-19191cf4cb1e-attr-3-name" class="er entityLabel">email</text><rect height="24" width="23.12841796875" y="75.015625" x="126.85617065429688" class="er attributeBoxOdd"></rect><text style="dominant-baseline: middle; font-size: 10.2px;" transform="translate(131.85617065429688,87.015625)" y="0" x="0" id="text-entity-CLIENT-4e758595-4f1b-56da-a7d5-19191cf4cb1e-attr-3-key" class="er entityLabel"></text><rect height="24" width="37.4693603515625" y="99.015625" x="0" class="er attributeBoxEven"></rect><text style="dominant-baseline: middle; font-size: 10.2px;" transform="translate(5,111.015625)" y="0" x="0" id="text-entity-CLIENT-4e758595-4f1b-56da-a7d5-19191cf4cb1e-attr-4-type" class="er entityLabel">string</text><rect height="24" width="89.38681030273438" y="99.015625" x="37.4693603515625" class="er attributeBoxEven"></rect><text style="dominant-baseline: middle; font-size: 10.2px;" transform="translate(42.4693603515625,111.015625)" y="0" x="0" id="text-entity-CLIENT-4e758595-4f1b-56da-a7d5-19191cf4cb1e-attr-4-name" class="er entityLabel">telefon</text><rect height="24" width="23.12841796875" y="99.015625" x="126.85617065429688" class="er attributeBoxEven"></rect><text style="dominant-baseline: middle; font-size: 10.2px;" transform="translate(131.85617065429688,111.015625)" y="0" x="0" id="text-entity-CLIENT-4e758595-4f1b-56da-a7d5-19191cf4cb1e-attr-4-key" class="er entityLabel"></text><rect height="24" width="37.4693603515625" y="123.015625" x="0" class="er attributeBoxOdd"></rect><text style="dominant-baseline: middle; font-size: 10.2px;" transform="translate(5,135.015625)" y="0" x="0" id="text-entity-CLIENT-4e758595-4f1b-56da-a7d5-19191cf4cb1e-attr-5-type" class="er entityLabel">string</text><rect height="24" width="89.38681030273438" y="123.015625" x="37.4693603515625" class="er attributeBoxOdd"></rect><text style="dominant-baseline: middle; font-size: 10.2px;" transform="translate(42.4693603515625,135.015625)" y="0" x="0" id="text-entity-CLIENT-4e758595-4f1b-56da-a7d5-19191cf4cb1e-attr-5-name" class="er entityLabel">date_identificare</text><rect height="24" width="23.12841796875" y="123.015625" x="126.85617065429688" class="er attributeBoxOdd"></rect><text style="dominant-baseline: middle; font-size: 10.2px;" transform="translate(131.85617065429688,135.015625)" y="0" x="0" id="text-entity-CLIENT-4e758595-4f1b-56da-a7d5-19191cf4cb1e-attr-5-key" class="er entityLabel"></text></g><g transform="translate(402.7633285522461,267.015625 )" id="entity-REZERVARE-51705926-8796-5b74-8302-d00117d4e6b7"><rect height="147.015625" width="136.98626708984375" y="0" x="0" class="er entityBox"></rect><text style="dominant-baseline: middle; text-anchor: middle; font-size: 12px;" transform="translate(68.49313354492188,13.5078125)" y="0" x="0" id="text-entity-REZERVARE-51705926-8796-5b74-8302-d00117d4e6b7" class="er entityLabel">REZERVARE</text><rect height="24" width="31.788330078125" y="27.015625" x="0" class="er attributeBoxOdd"></rect><text style="dominant-baseline: middle; font-size: 10.2px;" transform="translate(5,39.015625)" y="0" x="0" id="text-entity-REZERVARE-51705926-8796-5b74-8302-d00117d4e6b7-attr-1-type" class="er entityLabel">int</text><rect height="24" width="82.06951904296875" y="27.015625" x="31.788330078125" class="er attributeBoxOdd"></rect><text style="dominant-baseline: middle; font-size: 10.2px;" transform="translate(36.788330078125,39.015625)" y="0" x="0" id="text-entity-REZERVARE-51705926-8796-5b74-8302-d00117d4e6b7-attr-1-name" class="er entityLabel">id</text><rect height="24" width="23.12841796875" y="27.015625" x="113.85784912109375" class="er attributeBoxOdd"></rect><text style="dominant-baseline: middle; font-size: 10.2px;" transform="translate(118.85784912109375,39.015625)" y="0" x="0" id="text-entity-REZERVARE-51705926-8796-5b74-8302-d00117d4e6b7-attr-1-key" class="er entityLabel">PK</text><rect height="24" width="31.788330078125" y="51.015625" x="0" class="er attributeBoxEven"></rect><text style="dominant-baseline: middle; font-size: 10.2px;" transform="translate(5,63.015625)" y="0" x="0" id="text-entity-REZERVARE-51705926-8796-5b74-8302-d00117d4e6b7-attr-2-type" class="er entityLabel">date</text><rect height="24" width="82.06951904296875" y="51.015625" x="31.788330078125" class="er attributeBoxEven"></rect><text style="dominant-baseline: middle; font-size: 10.2px;" transform="translate(36.788330078125,63.015625)" y="0" x="0" id="text-entity-REZERVARE-51705926-8796-5b74-8302-d00117d4e6b7-attr-2-name" class="er entityLabel">data_inceput</text><rect height="24" width="23.12841796875" y="51.015625" x="113.85784912109375" class="er attributeBoxEven"></rect><text style="dominant-baseline: middle; font-size: 10.2px;" transform="translate(118.85784912109375,63.015625)" y="0" x="0" id="text-entity-REZERVARE-51705926-8796-5b74-8302-d00117d4e6b7-attr-2-key" class="er entityLabel"></text><rect height="24" width="31.788330078125" y="75.015625" x="0" class="er attributeBoxOdd"></rect><text style="dominant-baseline: middle; font-size: 10.2px;" transform="translate(5,87.015625)" y="0" x="0" id="text-entity-REZERVARE-51705926-8796-5b74-8302-d00117d4e6b7-attr-3-type" class="er entityLabel">date</text><rect height="24" width="82.06951904296875" y="75.015625" x="31.788330078125" class="er attributeBoxOdd"></rect><text style="dominant-baseline: middle; font-size: 10.2px;" transform="translate(36.788330078125,87.015625)" y="0" x="0" id="text-entity-REZERVARE-51705926-8796-5b74-8302-d00117d4e6b7-attr-3-name" class="er entityLabel">data_sfarsit</text><rect height="24" width="23.12841796875" y="75.015625" x="113.85784912109375" class="er attributeBoxOdd"></rect><text style="dominant-baseline: middle; font-size: 10.2px;" transform="translate(118.85784912109375,87.015625)" y="0" x="0" id="text-entity-REZERVARE-51705926-8796-5b74-8302-d00117d4e6b7-attr-3-key" class="er entityLabel"></text><rect height="24" width="31.788330078125" y="99.015625" x="0" class="er attributeBoxEven"></rect><text style="dominant-baseline: middle; font-size: 10.2px;" transform="translate(5,111.015625)" y="0" x="0" id="text-entity-REZERVARE-51705926-8796-5b74-8302-d00117d4e6b7-attr-4-type" class="er entityLabel">int</text><rect height="24" width="82.06951904296875" y="99.015625" x="31.788330078125" class="er attributeBoxEven"></rect><text style="dominant-baseline: middle; font-size: 10.2px;" transform="translate(36.788330078125,111.015625)" y="0" x="0" id="text-entity-REZERVARE-51705926-8796-5b74-8302-d00117d4e6b7-attr-4-name" class="er entityLabel">numar_camere</text><rect height="24" width="23.12841796875" y="99.015625" x="113.85784912109375" class="er attributeBoxEven"></rect><text style="dominant-baseline: middle; font-size: 10.2px;" transform="translate(118.85784912109375,111.015625)" y="0" x="0" id="text-entity-REZERVARE-51705926-8796-5b74-8302-d00117d4e6b7-attr-4-key" class="er entityLabel"></text><rect height="24" width="31.788330078125" y="123.015625" x="0" class="er attributeBoxOdd"></rect><text style="dominant-baseline: middle; font-size: 10.2px;" transform="translate(5,135.015625)" y="0" x="0" id="text-entity-REZERVARE-51705926-8796-5b74-8302-d00117d4e6b7-attr-5-type" class="er entityLabel">float</text><rect height="24" width="82.06951904296875" y="123.015625" x="31.788330078125" class="er attributeBoxOdd"></rect><text style="dominant-baseline: middle; font-size: 10.2px;" transform="translate(36.788330078125,135.015625)" y="0" x="0" id="text-entity-REZERVARE-51705926-8796-5b74-8302-d00117d4e6b7-attr-5-name" class="er entityLabel">cost_estimat</text><rect height="24" width="23.12841796875" y="123.015625" x="113.85784912109375" class="er attributeBoxOdd"></rect><text style="dominant-baseline: middle; font-size: 10.2px;" transform="translate(118.85784912109375,135.015625)" y="0" x="0" id="text-entity-REZERVARE-51705926-8796-5b74-8302-d00117d4e6b7-attr-5-key" class="er entityLabel"></text></g><g transform="translate(64.31126403808594,514.03125 )" id="entity-CAMERA-e6e555ab-f1f1-5017-89a1-dee24d98bc7f"><rect height="123.015625" width="145.1246337890625" y="0" x="0" class="er entityBox"></rect><text style="dominant-baseline: middle; text-anchor: middle; font-size: 12px;" transform="translate(72.56231689453125,13.5078125)" y="0" x="0" id="text-entity-CAMERA-e6e555ab-f1f1-5017-89a1-dee24d98bc7f" class="er entityLabel">CAMERA</text><rect height="24" width="37.4693603515625" y="27.015625" x="0" class="er attributeBoxOdd"></rect><text style="dominant-baseline: middle; font-size: 10.2px;" transform="translate(5,39.015625)" y="0" x="0" id="text-entity-CAMERA-e6e555ab-f1f1-5017-89a1-dee24d98bc7f-attr-1-type" class="er entityLabel">int</text><rect height="24" width="84.52685546875" y="27.015625" x="37.4693603515625" class="er attributeBoxOdd"></rect><text style="dominant-baseline: middle; font-size: 10.2px;" transform="translate(42.4693603515625,39.015625)" y="0" x="0" id="text-entity-CAMERA-e6e555ab-f1f1-5017-89a1-dee24d98bc7f-attr-1-name" class="er entityLabel">id</text><rect height="24" width="23.12841796875" y="27.015625" x="121.9962158203125" class="er attributeBoxOdd"></rect><text style="dominant-baseline: middle; font-size: 10.2px;" transform="translate(126.9962158203125,39.015625)" y="0" x="0" id="text-entity-CAMERA-e6e555ab-f1f1-5017-89a1-dee24d98bc7f-attr-1-key" class="er entityLabel">PK</text><rect height="24" width="37.4693603515625" y="51.015625" x="0" class="er attributeBoxEven"></rect><text style="dominant-baseline: middle; font-size: 10.2px;" transform="translate(5,63.015625)" y="0" x="0" id="text-entity-CAMERA-e6e555ab-f1f1-5017-89a1-dee24d98bc7f-attr-2-type" class="er entityLabel">string</text><rect height="24" width="84.52685546875" y="51.015625" x="37.4693603515625" class="er attributeBoxEven"></rect><text style="dominant-baseline: middle; font-size: 10.2px;" transform="translate(42.4693603515625,63.015625)" y="0" x="0" id="text-entity-CAMERA-e6e555ab-f1f1-5017-89a1-dee24d98bc7f-attr-2-name" class="er entityLabel">tip</text><rect height="24" width="23.12841796875" y="51.015625" x="121.9962158203125" class="er attributeBoxEven"></rect><text style="dominant-baseline: middle; font-size: 10.2px;" transform="translate(126.9962158203125,63.015625)" y="0" x="0" id="text-entity-CAMERA-e6e555ab-f1f1-5017-89a1-dee24d98bc7f-attr-2-key" class="er entityLabel"></text><rect height="24" width="37.4693603515625" y="75.015625" x="0" class="er attributeBoxOdd"></rect><text style="dominant-baseline: middle; font-size: 10.2px;" transform="translate(5,87.015625)" y="0" x="0" id="text-entity-CAMERA-e6e555ab-f1f1-5017-89a1-dee24d98bc7f-attr-3-type" class="er entityLabel">float</text><rect height="24" width="84.52685546875" y="75.015625" x="37.4693603515625" class="er attributeBoxOdd"></rect><text style="dominant-baseline: middle; font-size: 10.2px;" transform="translate(42.4693603515625,87.015625)" y="0" x="0" id="text-entity-CAMERA-e6e555ab-f1f1-5017-89a1-dee24d98bc7f-attr-3-name" class="er entityLabel">pret_pe_noapte</text><rect height="24" width="23.12841796875" y="75.015625" x="121.9962158203125" class="er attributeBoxOdd"></rect><text style="dominant-baseline: middle; font-size: 10.2px;" transform="translate(126.9962158203125,87.015625)" y="0" x="0" id="text-entity-CAMERA-e6e555ab-f1f1-5017-89a1-dee24d98bc7f-attr-3-key" class="er entityLabel"></text><rect height="24" width="37.4693603515625" y="99.015625" x="0" class="er attributeBoxEven"></rect><text style="dominant-baseline: middle; font-size: 10.2px;" transform="translate(5,111.015625)" y="0" x="0" id="text-entity-CAMERA-e6e555ab-f1f1-5017-89a1-dee24d98bc7f-attr-4-type" class="er entityLabel">bool</text><rect height="24" width="84.52685546875" y="99.015625" x="37.4693603515625" class="er attributeBoxEven"></rect><text style="dominant-baseline: middle; font-size: 10.2px;" transform="translate(42.4693603515625,111.015625)" y="0" x="0" id="text-entity-CAMERA-e6e555ab-f1f1-5017-89a1-dee24d98bc7f-attr-4-name" class="er entityLabel">disponibilitate</text><rect height="24" width="23.12841796875" y="99.015625" x="121.9962158203125" class="er attributeBoxEven"></rect><text style="dominant-baseline: middle; font-size: 10.2px;" transform="translate(126.9962158203125,111.015625)" y="0" x="0" id="text-entity-CAMERA-e6e555ab-f1f1-5017-89a1-dee24d98bc7f-attr-4-key" class="er entityLabel"></text></g><g transform="translate(66.9770736694336,279.015625 )" id="entity-EVALUARE-4b691262-a872-5357-9659-eb648a1f5809"><rect height="123.015625" width="125.2852783203125" y="0" x="0" class="er entityBox"></rect><text style="dominant-baseline: middle; text-anchor: middle; font-size: 12px;" transform="translate(62.64263916015625,13.5078125)" y="0" x="0" id="text-entity-EVALUARE-4b691262-a872-5357-9659-eb648a1f5809" class="er entityLabel">EVALUARE</text><rect height="24" width="37.4693603515625" y="27.015625" x="0" class="er attributeBoxOdd"></rect><text style="dominant-baseline: middle; font-size: 10.2px;" transform="translate(5,39.015625)" y="0" x="0" id="text-entity-EVALUARE-4b691262-a872-5357-9659-eb648a1f5809-attr-1-type" class="er entityLabel">int</text><rect height="24" width="64.6875" y="27.015625" x="37.4693603515625" class="er attributeBoxOdd"></rect><text style="dominant-baseline: middle; font-size: 10.2px;" transform="translate(42.4693603515625,39.015625)" y="0" x="0" id="text-entity-EVALUARE-4b691262-a872-5357-9659-eb648a1f5809-attr-1-name" class="er entityLabel">id</text><rect height="24" width="23.12841796875" y="27.015625" x="102.1568603515625" class="er attributeBoxOdd"></rect><text style="dominant-baseline: middle; font-size: 10.2px;" transform="translate(107.1568603515625,39.015625)" y="0" x="0" id="text-entity-EVALUARE-4b691262-a872-5357-9659-eb648a1f5809-attr-1-key" class="er entityLabel">PK</text><rect height="24" width="37.4693603515625" y="51.015625" x="0" class="er attributeBoxEven"></rect><text style="dominant-baseline: middle; font-size: 10.2px;" transform="translate(5,63.015625)" y="0" x="0" id="text-entity-EVALUARE-4b691262-a872-5357-9659-eb648a1f5809-attr-2-type" class="er entityLabel">int</text><rect height="24" width="64.6875" y="51.015625" x="37.4693603515625" class="er attributeBoxEven"></rect><text style="dominant-baseline: middle; font-size: 10.2px;" transform="translate(42.4693603515625,63.015625)" y="0" x="0" id="text-entity-EVALUARE-4b691262-a872-5357-9659-eb648a1f5809-attr-2-name" class="er entityLabel">client_id</text><rect height="24" width="23.12841796875" y="51.015625" x="102.1568603515625" class="er attributeBoxEven"></rect><text style="dominant-baseline: middle; font-size: 10.2px;" transform="translate(107.1568603515625,63.015625)" y="0" x="0" id="text-entity-EVALUARE-4b691262-a872-5357-9659-eb648a1f5809-attr-2-key" class="er entityLabel">FK</text><rect height="24" width="37.4693603515625" y="75.015625" x="0" class="er attributeBoxOdd"></rect><text style="dominant-baseline: middle; font-size: 10.2px;" transform="translate(5,87.015625)" y="0" x="0" id="text-entity-EVALUARE-4b691262-a872-5357-9659-eb648a1f5809-attr-3-type" class="er entityLabel">int</text><rect height="24" width="64.6875" y="75.015625" x="37.4693603515625" class="er attributeBoxOdd"></rect><text style="dominant-baseline: middle; font-size: 10.2px;" transform="translate(42.4693603515625,87.015625)" y="0" x="0" id="text-entity-EVALUARE-4b691262-a872-5357-9659-eb648a1f5809-attr-3-name" class="er entityLabel">nota</text><rect height="24" width="23.12841796875" y="75.015625" x="102.1568603515625" class="er attributeBoxOdd"></rect><text style="dominant-baseline: middle; font-size: 10.2px;" transform="translate(107.1568603515625,87.015625)" y="0" x="0" id="text-entity-EVALUARE-4b691262-a872-5357-9659-eb648a1f5809-attr-3-key" class="er entityLabel"></text><rect height="24" width="37.4693603515625" y="99.015625" x="0" class="er attributeBoxEven"></rect><text style="dominant-baseline: middle; font-size: 10.2px;" transform="translate(5,111.015625)" y="0" x="0" id="text-entity-EVALUARE-4b691262-a872-5357-9659-eb648a1f5809-attr-4-type" class="er entityLabel">string</text><rect height="24" width="64.6875" y="99.015625" x="37.4693603515625" class="er attributeBoxEven"></rect><text style="dominant-baseline: middle; font-size: 10.2px;" transform="translate(42.4693603515625,111.015625)" y="0" x="0" id="text-entity-EVALUARE-4b691262-a872-5357-9659-eb648a1f5809-attr-4-name" class="er entityLabel">comentariu</text><rect height="24" width="23.12841796875" y="99.015625" x="102.1568603515625" class="er attributeBoxEven"></rect><text style="dominant-baseline: middle; font-size: 10.2px;" transform="translate(107.1568603515625,111.015625)" y="0" x="0" id="text-entity-EVALUARE-4b691262-a872-5357-9659-eb648a1f5809-attr-4-key" class="er entityLabel"></text></g><g transform="translate(517.4066925048828,514.03125 )" id="entity-FACTURA-c8d28b75-9c09-5d80-b16f-156b8d9285e7"><rect height="123.015625" width="123.369873046875" y="0" x="0" class="er entityBox"></rect><text style="dominant-baseline: middle; text-anchor: middle; font-size: 12px;" transform="translate(61.6849365234375,13.5078125)" y="0" x="0" id="text-entity-FACTURA-c8d28b75-9c09-5d80-b16f-156b8d9285e7" class="er entityLabel">FACTURA</text><rect height="24" width="31.788330078125" y="27.015625" x="0" class="er attributeBoxOdd"></rect><text style="dominant-baseline: middle; font-size: 10.2px;" transform="translate(5,39.015625)" y="0" x="0" id="text-entity-FACTURA-c8d28b75-9c09-5d80-b16f-156b8d9285e7-attr-1-type" class="er entityLabel">int</text><rect height="24" width="68.453125" y="27.015625" x="31.788330078125" class="er attributeBoxOdd"></rect><text style="dominant-baseline: middle; font-size: 10.2px;" transform="translate(36.788330078125,39.015625)" y="0" x="0" id="text-entity-FACTURA-c8d28b75-9c09-5d80-b16f-156b8d9285e7-attr-1-name" class="er entityLabel">id</text><rect height="24" width="23.12841796875" y="27.015625" x="100.241455078125" class="er attributeBoxOdd"></rect><text style="dominant-baseline: middle; font-size: 10.2px;" transform="translate(105.241455078125,39.015625)" y="0" x="0" id="text-entity-FACTURA-c8d28b75-9c09-5d80-b16f-156b8d9285e7-attr-1-key" class="er entityLabel">PK</text><rect height="24" width="31.788330078125" y="51.015625" x="0" class="er attributeBoxEven"></rect><text style="dominant-baseline: middle; font-size: 10.2px;" transform="translate(5,63.015625)" y="0" x="0" id="text-entity-FACTURA-c8d28b75-9c09-5d80-b16f-156b8d9285e7-attr-2-type" class="er entityLabel">int</text><rect height="24" width="68.453125" y="51.015625" x="31.788330078125" class="er attributeBoxEven"></rect><text style="dominant-baseline: middle; font-size: 10.2px;" transform="translate(36.788330078125,63.015625)" y="0" x="0" id="text-entity-FACTURA-c8d28b75-9c09-5d80-b16f-156b8d9285e7-attr-2-name" class="er entityLabel">rezervare_id</text><rect height="24" width="23.12841796875" y="51.015625" x="100.241455078125" class="er attributeBoxEven"></rect><text style="dominant-baseline: middle; font-size: 10.2px;" transform="translate(105.241455078125,63.015625)" y="0" x="0" id="text-entity-FACTURA-c8d28b75-9c09-5d80-b16f-156b8d9285e7-attr-2-key" class="er entityLabel">FK</text><rect height="24" width="31.788330078125" y="75.015625" x="0" class="er attributeBoxOdd"></rect><text style="dominant-baseline: middle; font-size: 10.2px;" transform="translate(5,87.015625)" y="0" x="0" id="text-entity-FACTURA-c8d28b75-9c09-5d80-b16f-156b8d9285e7-attr-3-type" class="er entityLabel">float</text><rect height="24" width="68.453125" y="75.015625" x="31.788330078125" class="er attributeBoxOdd"></rect><text style="dominant-baseline: middle; font-size: 10.2px;" transform="translate(36.788330078125,87.015625)" y="0" x="0" id="text-entity-FACTURA-c8d28b75-9c09-5d80-b16f-156b8d9285e7-attr-3-name" class="er entityLabel">suma_totala</text><rect height="24" width="23.12841796875" y="75.015625" x="100.241455078125" class="er attributeBoxOdd"></rect><text style="dominant-baseline: middle; font-size: 10.2px;" transform="translate(105.241455078125,87.015625)" y="0" x="0" id="text-entity-FACTURA-c8d28b75-9c09-5d80-b16f-156b8d9285e7-attr-3-key" class="er entityLabel"></text><rect height="24" width="31.788330078125" y="99.015625" x="0" class="er attributeBoxEven"></rect><text style="dominant-baseline: middle; font-size: 10.2px;" transform="translate(5,111.015625)" y="0" x="0" id="text-entity-FACTURA-c8d28b75-9c09-5d80-b16f-156b8d9285e7-attr-4-type" class="er entityLabel">bool</text><rect height="24" width="68.453125" y="99.015625" x="31.788330078125" class="er attributeBoxEven"></rect><text style="dominant-baseline: middle; font-size: 10.2px;" transform="translate(36.788330078125,111.015625)" y="0" x="0" id="text-entity-FACTURA-c8d28b75-9c09-5d80-b16f-156b8d9285e7-attr-4-name" class="er entityLabel">validata</text><rect height="24" width="23.12841796875" y="99.015625" x="100.241455078125" class="er attributeBoxEven"></rect><text style="dominant-baseline: middle; font-size: 10.2px;" transform="translate(105.241455078125,111.015625)" y="0" x="0" id="text-entity-FACTURA-c8d28b75-9c09-5d80-b16f-156b8d9285e7-attr-4-key" class="er entityLabel"></text></g><g transform="translate(520.3161773681641,749.046875 )" id="entity-PLATA-4edb4716-212c-5545-b0c2-47cb7c69c390"><rect height="123.015625" width="117.5509033203125" y="0" x="0" class="er entityBox"></rect><text style="dominant-baseline: middle; text-anchor: middle; font-size: 12px;" transform="translate(58.77545166015625,13.5078125)" y="0" x="0" id="text-entity-PLATA-4edb4716-212c-5545-b0c2-47cb7c69c390" class="er entityLabel">PLATA</text><rect height="24" width="37.4693603515625" y="27.015625" x="0" class="er attributeBoxOdd"></rect><text style="dominant-baseline: middle; font-size: 10.2px;" transform="translate(5,39.015625)" y="0" x="0" id="text-entity-PLATA-4edb4716-212c-5545-b0c2-47cb7c69c390-attr-1-type" class="er entityLabel">int</text><rect height="24" width="56.953125" y="27.015625" x="37.4693603515625" class="er attributeBoxOdd"></rect><text style="dominant-baseline: middle; font-size: 10.2px;" transform="translate(42.4693603515625,39.015625)" y="0" x="0" id="text-entity-PLATA-4edb4716-212c-5545-b0c2-47cb7c69c390-attr-1-name" class="er entityLabel">id</text><rect height="24" width="23.12841796875" y="27.015625" x="94.4224853515625" class="er attributeBoxOdd"></rect><text style="dominant-baseline: middle; font-size: 10.2px;" transform="translate(99.4224853515625,39.015625)" y="0" x="0" id="text-entity-PLATA-4edb4716-212c-5545-b0c2-47cb7c69c390-attr-1-key" class="er entityLabel">PK</text><rect height="24" width="37.4693603515625" y="51.015625" x="0" class="er attributeBoxEven"></rect><text style="dominant-baseline: middle; font-size: 10.2px;" transform="translate(5,63.015625)" y="0" x="0" id="text-entity-PLATA-4edb4716-212c-5545-b0c2-47cb7c69c390-attr-2-type" class="er entityLabel">int</text><rect height="24" width="56.953125" y="51.015625" x="37.4693603515625" class="er attributeBoxEven"></rect><text style="dominant-baseline: middle; font-size: 10.2px;" transform="translate(42.4693603515625,63.015625)" y="0" x="0" id="text-entity-PLATA-4edb4716-212c-5545-b0c2-47cb7c69c390-attr-2-name" class="er entityLabel">factura_id</text><rect height="24" width="23.12841796875" y="51.015625" x="94.4224853515625" class="er attributeBoxEven"></rect><text style="dominant-baseline: middle; font-size: 10.2px;" transform="translate(99.4224853515625,63.015625)" y="0" x="0" id="text-entity-PLATA-4edb4716-212c-5545-b0c2-47cb7c69c390-attr-2-key" class="er entityLabel">FK</text><rect height="24" width="37.4693603515625" y="75.015625" x="0" class="er attributeBoxOdd"></rect><text style="dominant-baseline: middle; font-size: 10.2px;" transform="translate(5,87.015625)" y="0" x="0" id="text-entity-PLATA-4edb4716-212c-5545-b0c2-47cb7c69c390-attr-3-type" class="er entityLabel">float</text><rect height="24" width="56.953125" y="75.015625" x="37.4693603515625" class="er attributeBoxOdd"></rect><text style="dominant-baseline: middle; font-size: 10.2px;" transform="translate(42.4693603515625,87.015625)" y="0" x="0" id="text-entity-PLATA-4edb4716-212c-5545-b0c2-47cb7c69c390-attr-3-name" class="er entityLabel">suma</text><rect height="24" width="23.12841796875" y="75.015625" x="94.4224853515625" class="er attributeBoxOdd"></rect><text style="dominant-baseline: middle; font-size: 10.2px;" transform="translate(99.4224853515625,87.015625)" y="0" x="0" id="text-entity-PLATA-4edb4716-212c-5545-b0c2-47cb7c69c390-attr-3-key" class="er entityLabel"></text><rect height="24" width="37.4693603515625" y="99.015625" x="0" class="er attributeBoxEven"></rect><text style="dominant-baseline: middle; font-size: 10.2px;" transform="translate(5,111.015625)" y="0" x="0" id="text-entity-PLATA-4edb4716-212c-5545-b0c2-47cb7c69c390-attr-4-type" class="er entityLabel">string</text><rect height="24" width="56.953125" y="99.015625" x="37.4693603515625" class="er attributeBoxEven"></rect><text style="dominant-baseline: middle; font-size: 10.2px;" transform="translate(42.4693603515625,111.015625)" y="0" x="0" id="text-entity-PLATA-4edb4716-212c-5545-b0c2-47cb7c69c390-attr-4-name" class="er entityLabel">metoda</text><rect height="24" width="23.12841796875" y="99.015625" x="94.4224853515625" class="er attributeBoxEven"></rect><text style="dominant-baseline: middle; font-size: 10.2px;" transform="translate(99.4224853515625,111.015625)" y="0" x="0" id="text-entity-PLATA-4edb4716-212c-5545-b0c2-47cb7c69c390-attr-4-key" class="er entityLabel"></text></g><g transform="translate(309.43589782714844,526.03125 )" id="entity-DISCOUNT-32395d4c-995f-57bf-be3d-4174f4cd72b2"><rect height="99.015625" width="107.97079467773438" y="0" x="0" class="er entityBox"></rect><text style="dominant-baseline: middle; text-anchor: middle; font-size: 12px;" transform="translate(53.98539733886719,13.5078125)" y="0" x="0" id="text-entity-DISCOUNT-32395d4c-995f-57bf-be3d-4174f4cd72b2" class="er entityLabel">DISCOUNT</text><rect height="24" width="37.4693603515625" y="27.015625" x="0" class="er attributeBoxOdd"></rect><text style="dominant-baseline: middle; font-size: 10.2px;" transform="translate(5,39.015625)" y="0" x="0" id="text-entity-DISCOUNT-32395d4c-995f-57bf-be3d-4174f4cd72b2-attr-1-type" class="er entityLabel">int</text><rect height="24" width="47.373016357421875" y="27.015625" x="37.4693603515625" class="er attributeBoxOdd"></rect><text style="dominant-baseline: middle; font-size: 10.2px;" transform="translate(42.4693603515625,39.015625)" y="0" x="0" id="text-entity-DISCOUNT-32395d4c-995f-57bf-be3d-4174f4cd72b2-attr-1-name" class="er entityLabel">id</text><rect height="24" width="23.12841796875" y="27.015625" x="84.84237670898438" class="er attributeBoxOdd"></rect><text style="dominant-baseline: middle; font-size: 10.2px;" transform="translate(89.84237670898438,39.015625)" y="0" x="0" id="text-entity-DISCOUNT-32395d4c-995f-57bf-be3d-4174f4cd72b2-attr-1-key" class="er entityLabel">PK</text><rect height="24" width="37.4693603515625" y="51.015625" x="0" class="er attributeBoxEven"></rect><text style="dominant-baseline: middle; font-size: 10.2px;" transform="translate(5,63.015625)" y="0" x="0" id="text-entity-DISCOUNT-32395d4c-995f-57bf-be3d-4174f4cd72b2-attr-2-type" class="er entityLabel">string</text><rect height="24" width="47.373016357421875" y="51.015625" x="37.4693603515625" class="er attributeBoxEven"></rect><text style="dominant-baseline: middle; font-size: 10.2px;" transform="translate(42.4693603515625,63.015625)" y="0" x="0" id="text-entity-DISCOUNT-32395d4c-995f-57bf-be3d-4174f4cd72b2-attr-2-name" class="er entityLabel">tip</text><rect height="24" width="23.12841796875" y="51.015625" x="84.84237670898438" class="er attributeBoxEven"></rect><text style="dominant-baseline: middle; font-size: 10.2px;" transform="translate(89.84237670898438,63.015625)" y="0" x="0" id="text-entity-DISCOUNT-32395d4c-995f-57bf-be3d-4174f4cd72b2-attr-2-key" class="er entityLabel"></text><rect height="24" width="37.4693603515625" y="75.015625" x="0" class="er attributeBoxOdd"></rect><text style="dominant-baseline: middle; font-size: 10.2px;" transform="translate(5,87.015625)" y="0" x="0" id="text-entity-DISCOUNT-32395d4c-995f-57bf-be3d-4174f4cd72b2-attr-3-type" class="er entityLabel">float</text><rect height="24" width="47.373016357421875" y="75.015625" x="37.4693603515625" class="er attributeBoxOdd"></rect><text style="dominant-baseline: middle; font-size: 10.2px;" transform="translate(42.4693603515625,87.015625)" y="0" x="0" id="text-entity-DISCOUNT-32395d4c-995f-57bf-be3d-4174f4cd72b2-attr-3-name" class="er entityLabel">procent</text><rect height="24" width="23.12841796875" y="75.015625" x="84.84237670898438" class="er attributeBoxOdd"></rect><text style="dominant-baseline: middle; font-size: 10.2px;" transform="translate(89.84237670898438,87.015625)" y="0" x="0" id="text-entity-DISCOUNT-32395d4c-995f-57bf-be3d-4174f4cd72b2-attr-3-key" class="er entityLabel"></text></g><g transform="translate(344.40087890625,56 )" id="entity-RECEPTIE-e3e8e9ad-51c5-50d7-afce-fae61d8c1090"><rect height="75.015625" width="138.04083251953125" y="0" x="0" class="er entityBox"></rect><text style="dominant-baseline: middle; text-anchor: middle; font-size: 12px;" transform="translate(69.02041625976562,13.5078125)" y="0" x="0" id="text-entity-RECEPTIE-e3e8e9ad-51c5-50d7-afce-fae61d8c1090" class="er entityLabel">RECEPTIE</text><rect height="24" width="37.4693603515625" y="27.015625" x="0" class="er attributeBoxOdd"></rect><text style="dominant-baseline: middle; font-size: 10.2px;" transform="translate(5,39.015625)" y="0" x="0" id="text-entity-RECEPTIE-e3e8e9ad-51c5-50d7-afce-fae61d8c1090-attr-1-type" class="er entityLabel">int</text><rect height="24" width="77.44305419921875" y="27.015625" x="37.4693603515625" class="er attributeBoxOdd"></rect><text style="dominant-baseline: middle; font-size: 10.2px;" transform="translate(42.4693603515625,39.015625)" y="0" x="0" id="text-entity-RECEPTIE-e3e8e9ad-51c5-50d7-afce-fae61d8c1090-attr-1-name" class="er entityLabel">id</text><rect height="24" width="23.12841796875" y="27.015625" x="114.91241455078125" class="er attributeBoxOdd"></rect><text style="dominant-baseline: middle; font-size: 10.2px;" transform="translate(119.91241455078125,39.015625)" y="0" x="0" id="text-entity-RECEPTIE-e3e8e9ad-51c5-50d7-afce-fae61d8c1090-attr-1-key" class="er entityLabel">PK</text><rect height="24" width="37.4693603515625" y="51.015625" x="0" class="er attributeBoxEven"></rect><text style="dominant-baseline: middle; font-size: 10.2px;" transform="translate(5,63.015625)" y="0" x="0" id="text-entity-RECEPTIE-e3e8e9ad-51c5-50d7-afce-fae61d8c1090-attr-2-type" class="er entityLabel">string</text><rect height="24" width="77.44305419921875" y="51.015625" x="37.4693603515625" class="er attributeBoxEven"></rect><text style="dominant-baseline: middle; font-size: 10.2px;" transform="translate(42.4693603515625,63.015625)" y="0" x="0" id="text-entity-RECEPTIE-e3e8e9ad-51c5-50d7-afce-fae61d8c1090-attr-2-name" class="er entityLabel">nume_angajat</text><rect height="24" width="23.12841796875" y="51.015625" x="114.91241455078125" class="er attributeBoxEven"></rect><text style="dominant-baseline: middle; font-size: 10.2px;" transform="translate(119.91241455078125,63.015625)" y="0" x="0" id="text-entity-RECEPTIE-e3e8e9ad-51c5-50d7-afce-fae61d8c1090-attr-2-key" class="er entityLabel"></text></g><g transform="translate(20,737.046875 )" id="entity-CAZARE-0501f21b-0bb6-5248-9301-cf1c58829980"><rect height="147.015625" width="126.20184326171875" y="0" x="0" class="er entityBox"></rect><text style="dominant-baseline: middle; text-anchor: middle; font-size: 12px;" transform="translate(63.100921630859375,13.5078125)" y="0" x="0" id="text-entity-CAZARE-0501f21b-0bb6-5248-9301-cf1c58829980" class="er entityLabel">CAZARE</text><rect height="24" width="31.524993896484375" y="27.015625" x="0" class="er attributeBoxOdd"></rect><text style="dominant-baseline: middle; font-size: 10.2px;" transform="translate(5,39.015625)" y="0" x="0" id="text-entity-CAZARE-0501f21b-0bb6-5248-9301-cf1c58829980-attr-1-type" class="er entityLabel">int</text><rect height="24" width="71.54843139648438" y="27.015625" x="31.524993896484375" class="er attributeBoxOdd"></rect><text style="dominant-baseline: middle; font-size: 10.2px;" transform="translate(36.524993896484375,39.015625)" y="0" x="0" id="text-entity-CAZARE-0501f21b-0bb6-5248-9301-cf1c58829980-attr-1-name" class="er entityLabel">id</text><rect height="24" width="23.12841796875" y="27.015625" x="103.07342529296875" class="er attributeBoxOdd"></rect><text style="dominant-baseline: middle; font-size: 10.2px;" transform="translate(108.07342529296875,39.015625)" y="0" x="0" id="text-entity-CAZARE-0501f21b-0bb6-5248-9301-cf1c58829980-attr-1-key" class="er entityLabel">PK</text><rect height="24" width="31.524993896484375" y="51.015625" x="0" class="er attributeBoxEven"></rect><text style="dominant-baseline: middle; font-size: 10.2px;" transform="translate(5,63.015625)" y="0" x="0" id="text-entity-CAZARE-0501f21b-0bb6-5248-9301-cf1c58829980-attr-2-type" class="er entityLabel">int</text><rect height="24" width="71.54843139648438" y="51.015625" x="31.524993896484375" class="er attributeBoxEven"></rect><text style="dominant-baseline: middle; font-size: 10.2px;" transform="translate(36.524993896484375,63.015625)" y="0" x="0" id="text-entity-CAZARE-0501f21b-0bb6-5248-9301-cf1c58829980-attr-2-name" class="er entityLabel">client_id</text><rect height="24" width="23.12841796875" y="51.015625" x="103.07342529296875" class="er attributeBoxEven"></rect><text style="dominant-baseline: middle; font-size: 10.2px;" transform="translate(108.07342529296875,63.015625)" y="0" x="0" id="text-entity-CAZARE-0501f21b-0bb6-5248-9301-cf1c58829980-attr-2-key" class="er entityLabel">FK</text><rect height="24" width="31.524993896484375" y="75.015625" x="0" class="er attributeBoxOdd"></rect><text style="dominant-baseline: middle; font-size: 10.2px;" transform="translate(5,87.015625)" y="0" x="0" id="text-entity-CAZARE-0501f21b-0bb6-5248-9301-cf1c58829980-attr-3-type" class="er entityLabel">int</text><rect height="24" width="71.54843139648438" y="75.015625" x="31.524993896484375" class="er attributeBoxOdd"></rect><text style="dominant-baseline: middle; font-size: 10.2px;" transform="translate(36.524993896484375,87.015625)" y="0" x="0" id="text-entity-CAZARE-0501f21b-0bb6-5248-9301-cf1c58829980-attr-3-name" class="er entityLabel">camera_id</text><rect height="24" width="23.12841796875" y="75.015625" x="103.07342529296875" class="er attributeBoxOdd"></rect><text style="dominant-baseline: middle; font-size: 10.2px;" transform="translate(108.07342529296875,87.015625)" y="0" x="0" id="text-entity-CAZARE-0501f21b-0bb6-5248-9301-cf1c58829980-attr-3-key" class="er entityLabel">FK</text><rect height="24" width="31.524993896484375" y="99.015625" x="0" class="er attributeBoxEven"></rect><text style="dominant-baseline: middle; font-size: 10.2px;" transform="translate(5,111.015625)" y="0" x="0" id="text-entity-CAZARE-0501f21b-0bb6-5248-9301-cf1c58829980-attr-4-type" class="er entityLabel">date</text><rect height="24" width="71.54843139648438" y="99.015625" x="31.524993896484375" class="er attributeBoxEven"></rect><text style="dominant-baseline: middle; font-size: 10.2px;" transform="translate(36.524993896484375,111.015625)" y="0" x="0" id="text-entity-CAZARE-0501f21b-0bb6-5248-9301-cf1c58829980-attr-4-name" class="er entityLabel">data_inceput</text><rect height="24" width="23.12841796875" y="99.015625" x="103.07342529296875" class="er attributeBoxEven"></rect><text style="dominant-baseline: middle; font-size: 10.2px;" transform="translate(108.07342529296875,111.015625)" y="0" x="0" id="text-entity-CAZARE-0501f21b-0bb6-5248-9301-cf1c58829980-attr-4-key" class="er entityLabel"></text><rect height="24" width="31.524993896484375" y="123.015625" x="0" class="er attributeBoxOdd"></rect><text style="dominant-baseline: middle; font-size: 10.2px;" transform="translate(5,135.015625)" y="0" x="0" id="text-entity-CAZARE-0501f21b-0bb6-5248-9301-cf1c58829980-attr-5-type" class="er entityLabel">date</text><rect height="24" width="71.54843139648438" y="123.015625" x="31.524993896484375" class="er attributeBoxOdd"></rect><text style="dominant-baseline: middle; font-size: 10.2px;" transform="translate(36.524993896484375,135.015625)" y="0" x="0" id="text-entity-CAZARE-0501f21b-0bb6-5248-9301-cf1c58829980-attr-5-name" class="er entityLabel">data_sfarsit</text><rect height="24" width="23.12841796875" y="123.015625" x="103.07342529296875" class="er attributeBoxOdd"></rect><text style="dominant-baseline: middle; font-size: 10.2px;" transform="translate(108.07342529296875,135.015625)" y="0" x="0" id="text-entity-CAZARE-0501f21b-0bb6-5248-9301-cf1c58829980-attr-5-key" class="er entityLabel"></text></g><rect height="17.015625" width="23.453125" y="212.44839477539062" x="289.63397216796875" class="er relationshipLabelBox"></rect><text style="text-anchor: middle; dominant-baseline: middle; font-size: 12px;" y="220.95620727539062" x="301.36053466796875" id="rel2" class="er relationshipLabel">face</text><rect height="17.015625" width="40.8671875" y="413.7531433105469" x="233.88287353515625" class="er relationshipLabelBox"></rect><text style="text-anchor: middle; dominant-baseline: middle; font-size: 12px;" y="422.2609558105469" x="254.31646728515625" id="rel3" class="er relationshipLabel">include</text><rect height="17.015625" width="71.171875" y="214.50022888183594" x="93.82917785644531" class="er relationshipLabelBox"></rect><text style="text-anchor: middle; dominant-baseline: middle; font-size: 12px;" y="223.00804138183594" x="129.4151153564453" id="rel4" class="er relationshipLabel">completeaza</text><rect height="17.015625" width="57.96875" y="450.5050964355469" x="540.43115234375" class="er relationshipLabelBox"></rect><text style="text-anchor: middle; dominant-baseline: middle; font-size: 12px;" y="459.0129089355469" x="569.41552734375" id="rel5" class="er relationshipLabel">genereaza</text><rect height="17.015625" width="101.328125" y="684.5391845703125" x="528.4279174804688" class="er relationshipLabelBox"></rect><text style="text-anchor: middle; dominant-baseline: middle; font-size: 12px;" y="693.0469970703125" x="579.0919799804688" id="rel6" class="er relationshipLabel">este_achitata_prin</text><rect height="17.015625" width="63.578125" y="456.1429138183594" x="339.4607238769531" class="er relationshipLabelBox"></rect><text style="text-anchor: middle; dominant-baseline: middle; font-size: 12px;" y="464.6507263183594" x="371.2497863769531" id="rel7" class="er relationshipLabel">poate_avea</text><rect height="17.015625" width="72.1875" y="184.0451202392578" x="459.46978759765625" class="er relationshipLabelBox"></rect><text style="text-anchor: middle; dominant-baseline: middle; font-size: 12px;" y="192.5529327392578" x="495.56353759765625" id="rel8" class="er relationshipLabel">inregistreaza</text><rect height="17.015625" width="72.1875" y="302.30511474609375" x="-70.89683532714844" class="er relationshipLabelBox"></rect><text style="text-anchor: middle; dominant-baseline: middle; font-size: 12px;" y="310.81292724609375" x="-34.80308532714844" id="rel9" class="er relationshipLabel">inregistreaza</text><rect height="17.015625" width="39.125" y="680.0227661132812" x="113.34988403320312" class="er relationshipLabelBox"></rect><text style="text-anchor: middle; dominant-baseline: middle; font-size: 12px;" y="688.5305786132812" x="132.91238403320312" id="rel10" class="er relationshipLabel">este_in</text></svg>